<?xml version="1.0" encoding="utf-8"?>
<!-- Generator: Adobe Illustrator 27.6.1, SVG Export Plug-In . SVG Version: 6.00 Build 0)  -->
<svg version="1.1" id="Layer_2_1_" xmlns="http://www.w3.org/2000/svg" xmlns:xlink="http://www.w3.org/1999/xlink" x="0px" y="0px"
	 viewBox="0 0 512 512" style="enable-background:new 0 0 512 512;" xml:space="preserve">
<style type="text/css">
	.st0{fill:#FA7800;}
	.st1{fill:#FFAF44;}
	.st2{fill:#E91889;}
	.st3{fill:#6020D6;}
	.st4{fill:#7F40BF;}
	.st5{fill:#BB67C8;}
	.st6{fill:#FF0062;}
	.st7{fill:#FF337E;}
</style>
<g>
	<path class="st0" d="M91.24,263.71c-27.27,0-49.46-22.19-49.46-49.46c0-4.27,3.45-7.71,7.71-7.71s7.71,3.45,7.71,7.71
		c0,18.77,15.29,34.07,34.07,34.07c4.27,0,7.71,3.45,7.71,7.71C98.99,260.3,95.51,263.71,91.24,263.71z"/>
	<path class="st1" d="M49.46,305.49c-4.27,0-7.71-3.45-7.71-7.71c0-18.77-15.29-34.07-34.07-34.07c-4.23,0-7.68-3.45-7.68-7.68
		c0-4.23,3.45-7.71,7.71-7.71c27.27,0,49.49,22.19,49.49,49.46C57.17,302.05,53.73,305.49,49.46,305.49L49.46,305.49z"/>
	<path class="st2" d="M49.46,305.49c-4.27,0-7.71-3.45-7.71-7.71c0-27.27,22.19-49.46,49.46-49.46c4.27,0,7.71,3.45,7.71,7.71
		c0,4.27-3.45,7.71-7.71,7.71c-18.77,0-34.07,15.29-34.07,34.07C57.17,302.05,53.73,305.49,49.46,305.49L49.46,305.49z"/>
	<path class="st3" d="M7.71,263.71C3.45,263.71,0,260.27,0,256s3.45-7.71,7.71-7.71c18.77,0,34.07-15.29,34.07-34.07
		c0-4.27,3.45-7.71,7.71-7.71s7.71,3.45,7.71,7.71C57.17,241.53,34.99,263.71,7.71,263.71L7.71,263.71z"/>
	<path class="st4" d="M57.17,214.25c0-4.27-3.45-7.71-7.71-7.71s-7.71,3.45-7.71,7.71c0,9.73,2.83,18.81,7.71,26.49
		C54.34,233.06,57.17,223.98,57.17,214.25z"/>
	<path class="st5" d="M7.71,248.32C3.45,248.32,0,251.77,0,256c0,4.23,3.45,7.71,7.71,7.71c9.73,0,18.81-2.83,26.49-7.71
		C26.52,251.15,17.44,248.32,7.71,248.32z"/>
	<path class="st6" d="M91.24,248.32c-9.73,0-18.81,2.83-26.49,7.71c7.65,4.88,16.73,7.71,26.49,7.71c4.27,0,7.71-3.45,7.71-7.71
		C98.95,251.77,95.51,248.32,91.24,248.32z"/>
	<path class="st7" d="M41.78,297.78c0,4.27,3.45,7.71,7.71,7.71s7.71-3.45,7.71-7.71c0-9.73-2.83-18.81-7.71-26.49
		C44.61,278.97,41.78,288.05,41.78,297.78z"/>
	<g>
		<path d="M218.18,223.4h-14.44v14.68h-7.07v11.67h7.07v28.95c0,12.19,6.08,18.12,18.6,18.12h9.08v-12.01h-6.62
			c-2.39,0-4.06-0.48-5.09-1.43c-1.02-0.96-1.54-2.49-1.54-4.57v-29.05h13.28v-11.67h-13.28L218.18,223.4L218.18,223.4z
			 M257.06,223.44h-14.44v14.68h-6.01v11.67h6.01v28.95c0,12.19,6.08,18.12,18.6,18.12h9.08v-12.01h-6.62
			c-2.39,0-4.06-0.48-5.09-1.43c-1.02-0.96-1.54-2.49-1.54-4.57v-29.05h13.28v-11.67h-13.31L257.06,223.44L257.06,223.44z
			 M145.41,274.88c0,3.07-0.75,5.53-2.22,7.27c-1.5,1.77-3.65,2.7-6.45,2.7c-2.8,0-5.09-0.96-6.62-2.8
			c-1.47-1.77-2.25-4.27-2.36-7.37h-14.34c0.07,7.17,2.25,12.8,6.49,16.79c4.3,4.06,10.04,6.14,17.07,6.14
			c7.03,0,12.56-2.01,16.69-5.97c4.13-3.96,6.21-9.59,6.21-16.76v-52.19h-14.47V274.88L145.41,274.88z M171.42,296.86h14.34v-58.74
			h-14.34V296.86L171.42,296.86z M178.69,214.49c-4.88,0-8.87,3.99-8.87,8.91c0,4.92,3.99,8.91,8.87,8.91
			c4.88,0,8.87-3.99,8.87-8.91C187.56,218.49,183.6,214.49,178.69,214.49z M451.99,296.82h14.34v-58.74h-14.34V296.82L451.99,296.82
			z M459.26,214.46c-4.88,0-8.87,3.99-8.87,8.91c0,4.92,3.99,8.91,8.87,8.91c4.88,0,8.87-3.99,8.87-8.91
			C468.14,218.45,464.15,214.46,459.26,214.46z M512,249.75v-11.67h-13.28V223.4h-14.44v14.68h-7.07v11.67h7.07v28.95
			c0,12.19,6.08,18.12,18.6,18.12h9.08v-12.01h-6.62c-2.39,0-4.06-0.48-5.09-1.43c-1.02-0.96-1.54-2.49-1.54-4.57v-29.05H512
			L512,249.75z M319.52,240.74c-4.4-2.39-9.42-3.62-14.98-3.62c-5.56,0-10.92,1.26-15.36,3.72c-4.4,2.46-7.92,6.04-10.34,10.58
			c-2.46,4.57-3.72,9.97-3.72,16.04c0,6.08,1.26,11.37,3.75,15.94c2.49,4.57,6.01,8.16,10.48,10.65s9.56,3.75,15.19,3.75
			c6.96,0,12.9-1.84,17.68-5.46c4.64-3.55,7.88-8.09,9.59-13.52h-15.53c-2.42,4.78-6.49,7.17-12.08,7.17
			c-3.93,0-7.27-1.26-9.97-3.72c-2.7-2.46-4.23-5.94-4.61-10.27l-0.03-0.34h43.38c0.24-1.64,0.38-3.48,0.38-5.46
			c0-5.7-1.23-10.82-3.65-15.22C327.37,246.58,323.93,243.13,319.52,240.74L319.52,240.74z M289.76,262.21l0.07-0.38
			c0.58-4.06,2.18-7.27,4.74-9.59c2.59-2.29,5.8-3.45,9.56-3.45c3.99,0,7.41,1.19,10.17,3.55c2.76,2.39,4.2,5.56,4.27,9.52v0.34
			H289.76L289.76,262.21z M430.46,240.81c-4.03-2.46-8.6-3.69-13.59-3.69c-4.27,0-8.12,0.89-11.47,2.63
			c-3.31,1.74-5.97,4.06-7.85,6.86l-0.58,0.89v-29.35h-14.34v78.68h14.34v-9.15l0.58,0.82c1.95,2.73,4.61,4.98,7.85,6.72
			c3.24,1.71,7.1,2.59,11.47,2.59c4.98,0,9.56-1.3,13.59-3.82c4.03-2.53,7.27-6.14,9.63-10.75s3.55-10,3.55-15.97
			c0-5.97-1.19-11.33-3.55-15.87C437.73,246.82,434.52,243.3,430.46,240.81L430.46,240.81z M426.73,276.82
			c-1.47,2.7-3.48,4.78-5.91,6.25c-2.42,1.47-5.09,2.18-7.92,2.18s-5.39-0.72-7.82-2.12c-2.42-1.4-4.4-3.48-5.91-6.18
			c-1.47-2.66-2.22-5.87-2.22-9.49c0-3.62,0.75-6.79,2.22-9.49c1.47-2.7,3.48-4.74,5.91-6.18c2.42-1.4,5.05-2.12,7.82-2.12
			s5.5,0.72,7.92,2.08c2.42,1.4,4.4,3.41,5.91,6.08c1.47,2.66,2.22,5.84,2.22,9.42C428.95,270.85,428.24,274.16,426.73,276.82
			L426.73,276.82z M356.69,244.74l-0.58,0.82v-7.44h-14.34v58.74h14.34v-29.25c0-5.56,1.23-9.56,3.69-11.81
			c2.46-2.25,6.08-3.41,10.85-3.41h3.65v-15.12C363.52,237.33,358.64,241.97,356.69,244.74z"/>
	</g>
</g>
</svg>
